<svg width="789" height="128" viewBox="0 0 789 128" fill="none" xmlns="http://www.w3.org/2000/svg">
<path d="M227.102 110.191V18.3652H239.896V110.191H227.102ZM168 110.191V18.3652H180.794V110.191H168ZM175.231 69.4261V58.2956H232.943V69.4261H175.231Z" fill="black"/>
<path d="M277.04 112C268.603 112 262.438 108.939 258.544 102.817C254.65 96.6957 252.703 87.2348 252.703 74.4348V38.4H265.497V74.2956C265.497 83.571 266.656 90.2493 268.974 94.3304C271.292 98.4116 275.093 100.452 280.377 100.452C283.622 100.452 286.496 99.7101 288.999 98.2261C291.595 96.6493 293.727 94.2841 295.396 91.1304C297.158 87.9768 298.456 83.9884 299.29 79.1652C300.217 74.2493 300.681 68.4058 300.681 61.6348V38.4H313.335V73.4609L313.614 110.191H301.793L303.879 79.4435H302.627C301.793 87.0493 300.31 93.2638 298.177 98.087C296.138 102.817 293.356 106.342 289.834 108.661C286.403 110.887 282.139 112 277.04 112Z" fill="black"/>
<path d="M358.731 112C353.076 112 348.116 111.119 343.851 109.357C339.587 107.594 336.017 105.09 333.143 101.843C330.269 98.5971 328.091 94.7014 326.607 90.1565C325.124 85.6116 324.382 80.6029 324.382 75.1304C324.382 69.8435 325.078 64.8812 326.468 60.2435C327.859 55.513 329.899 51.3855 332.587 47.8609C335.368 44.3362 338.845 41.5536 343.017 39.513C347.189 37.4725 352.056 36.4522 357.619 36.4522C362.718 36.4522 367.214 37.3333 371.108 39.0957C375.002 40.858 378.247 43.3623 380.843 46.6087C383.438 49.8551 385.293 53.7971 386.405 58.4348C387.61 62.9797 387.981 68.0812 387.518 73.7391L332.17 74.713V66.087L378.2 65.2522L375.558 70.2609C375.743 65.7159 375.187 61.7275 373.889 58.2956C372.684 54.8638 370.737 52.2203 368.049 50.3652C365.36 48.4174 361.883 47.4435 357.619 47.4435C353.076 47.4435 349.229 48.6029 346.076 50.9217C343.017 53.1478 340.699 56.3478 339.123 60.5217C337.64 64.6029 336.898 69.287 336.898 74.5739C336.898 83.2928 338.799 89.971 342.6 94.6087C346.494 99.2464 352.01 101.565 359.148 101.565C362.764 101.565 365.777 101.009 368.188 99.8956C370.598 98.6899 372.499 97.2058 373.889 95.4435C375.28 93.5884 376.253 91.6406 376.81 89.6C377.366 87.4667 377.551 85.4725 377.366 83.6174L389.325 84.5913C389.325 88.487 388.676 92.1043 387.379 95.4435C386.081 98.7826 384.087 101.704 381.399 104.209C378.803 106.62 375.604 108.522 371.803 109.913C368.002 111.304 363.645 112 358.731 112Z" fill="black"/>
<path d="M399.26 110.191V78.1913L398.982 38.4H410.802L408.855 72.3478H410.107C410.756 64 412.054 57.1826 414.001 51.8956C415.948 46.6087 418.543 42.713 421.788 40.2087C425.126 37.7043 429.205 36.4522 434.026 36.4522C438.847 36.4522 442.741 37.7507 445.707 40.3478C448.674 42.9449 450.76 46.9333 451.965 52.313C453.171 57.6 453.495 64.2783 452.939 72.3478H454.19C454.747 64.0928 455.998 57.3217 457.945 52.0348C459.892 46.7478 462.581 42.8522 466.011 40.3478C469.441 37.7507 473.659 36.4522 478.666 36.4522C482.467 36.4522 485.758 37.1478 488.539 38.5391C491.321 39.9304 493.638 42.0638 495.492 44.9391C497.347 47.7217 498.737 51.2464 499.664 55.513C500.592 59.687 501.055 64.6493 501.055 70.4V110.191H488.261V72.2087C488.261 66.6435 487.798 62.0985 486.87 58.5739C486.036 55.0493 484.692 52.4522 482.838 50.7826C480.983 49.113 478.573 48.2783 475.606 48.2783C471.434 48.2783 467.911 49.8551 465.037 53.0087C462.163 56.1623 459.985 60.6609 458.501 66.5043C457.111 72.2551 456.415 79.2116 456.415 87.3739V110.191H443.9V71.3739C443.9 66.1797 443.436 61.8667 442.509 58.4348C441.582 55.0029 440.191 52.4522 438.337 50.7826C436.483 49.113 434.119 48.2783 431.245 48.2783C427.351 48.2783 423.967 49.8087 421.093 52.8696C418.219 55.8377 415.994 60.2435 414.418 66.087C412.842 71.8377 412.054 78.9333 412.054 87.3739V110.191H399.26Z" fill="black"/>
<path d="M545.741 112C539.159 112 533.226 110.609 527.941 107.826C522.749 105.043 518.624 100.87 515.564 95.3043C512.598 89.6464 511.114 82.6435 511.114 74.2956C511.114 65.8551 512.644 58.8522 515.704 53.287C518.763 47.7217 522.842 43.5478 527.941 40.7652C533.133 37.8899 538.927 36.4522 545.324 36.4522C551.814 36.4522 557.655 37.8899 562.846 40.7652C568.038 43.6406 572.117 47.9072 575.084 53.5652C578.143 59.1304 579.673 66.1333 579.673 74.5739C579.673 83.0145 578.19 90.0174 575.223 95.5826C572.256 101.148 568.177 105.275 562.985 107.965C557.886 110.655 552.138 112 545.741 112ZM545.741 101.565C550.099 101.565 553.854 100.545 557.006 98.5043C560.158 96.371 562.568 93.3565 564.237 89.4609C565.906 85.5652 566.74 80.7884 566.74 75.1304C566.74 69.3797 565.859 64.4638 564.098 60.3826C562.337 56.2087 559.833 53.0087 556.588 50.7826C553.436 48.4638 549.635 47.3043 545.185 47.3043C540.828 47.3043 537.073 48.4174 533.921 50.6435C530.769 52.7768 528.312 55.8841 526.551 59.9652C524.882 63.9536 524.047 68.6841 524.047 74.1565C524.047 82.5971 525.948 89.2754 529.749 94.1913C533.643 99.1072 538.974 101.565 545.741 101.565Z" fill="black"/>
<path d="M612.356 111.443C605.866 111.443 600.906 109.635 597.476 106.017C594.138 102.4 592.469 97.0667 592.469 90.0174V49.113H583.43V39.6522H587.046C590.198 39.3739 592.469 38.4464 593.86 36.8696C595.251 35.2 596.085 32.7884 596.363 29.6348L597.058 22.9565H604.985V38.4H624.037V49.2522H604.985V89.3217C604.985 92.9391 605.819 95.629 607.488 97.3913C609.25 99.1536 611.567 100.035 614.441 100.035C616.11 100.035 617.779 99.8029 619.448 99.3391C621.209 98.7826 622.739 97.9942 624.037 96.9739V109.217C621.997 109.959 620.004 110.516 618.057 110.887C616.203 111.258 614.302 111.443 612.356 111.443Z" fill="black"/>
<path d="M634.203 110.191V38.4H646.858V110.191H634.203ZM640.461 29.4957C637.772 29.4957 635.732 28.8928 634.342 27.687C632.951 26.4812 632.256 24.8116 632.256 22.6783C632.256 20.4522 632.951 18.7826 634.342 17.6696C635.732 16.5565 637.772 16 640.461 16C643.149 16 645.189 16.5565 646.58 17.6696C647.97 18.7826 648.665 20.4986 648.665 22.8174C648.665 24.858 647.97 26.4812 646.58 27.687C645.189 28.8928 643.149 29.4957 640.461 29.4957Z" fill="black"/>
<path d="M680.869 110.191L654.585 38.4H668.353L688.656 99.0609H689.352L709.794 38.4H723.005L696.722 110.191H680.869Z" fill="black"/>
<path d="M758.406 112C752.751 112 747.791 111.119 743.526 109.357C739.261 107.594 735.692 105.09 732.818 101.843C729.944 98.5971 727.765 94.7014 726.282 90.1565C724.799 85.6116 724.057 80.6029 724.057 75.1304C724.057 69.8435 724.752 64.8812 726.143 60.2435C727.533 55.513 729.573 51.3855 732.262 47.8609C735.043 44.3362 738.52 41.5536 742.691 39.513C746.863 37.4725 751.731 36.4522 757.293 36.4522C762.392 36.4522 766.889 37.3333 770.783 39.0957C774.676 40.858 777.921 43.3623 780.517 46.6087C783.113 49.8551 784.967 53.7971 786.08 58.4348C787.285 62.9797 787.656 68.0812 787.192 73.7391L731.844 74.713V66.087L777.875 65.2522L775.233 70.2609C775.418 65.7159 774.862 61.7275 773.564 58.2956C772.359 54.8638 770.412 52.2203 767.723 50.3652C765.035 48.4174 761.558 47.4435 757.293 47.4435C752.75 47.4435 748.903 48.6029 745.751 50.9217C742.692 53.1478 740.374 56.3478 738.798 60.5217C737.314 64.6029 736.573 69.287 736.573 74.5739C736.573 83.2928 738.473 89.971 742.274 94.6087C746.168 99.2464 751.684 101.565 758.823 101.565C762.439 101.565 765.452 101.009 767.862 99.8956C770.273 98.6899 772.173 97.2058 773.564 95.4435C774.954 93.5884 775.928 91.6406 776.484 89.6C777.04 87.4667 777.226 85.4725 777.04 83.6174L789 84.5913C789 88.487 788.351 92.1043 787.053 95.4435C785.755 98.7826 783.762 101.704 781.073 104.209C778.477 106.62 775.279 108.522 771.478 109.913C767.677 111.304 763.319 112 758.406 112Z" fill="black"/>
<path d="M51.6924 0L91.5355 39.44V0H51.6924Z" fill="black"/>
<path d="M41.0677 3.19385L9.84619 26.4615H64L41.0677 3.19385Z" fill="black"/>
<path d="M88.6155 91.0769H128V51.6923L88.6155 91.0769Z" fill="black"/>
<path d="M124.923 41.2308L101.539 9.84619V64L124.923 41.2308Z" fill="black"/>
<path d="M0 36.3077V75.6924L39.3846 36.3077H0Z" fill="black"/>
<path d="M86.7692 124.923L118.154 101.538H64L86.7692 124.923Z" fill="black"/>
<path d="M3.0769 86.7692L26.4615 118.154V64L3.0769 86.7692Z" fill="black"/>
<path d="M36.3015 88.6431L36.3077 128H75.6923L36.3015 88.6431Z" fill="black"/>
</svg>
